<svg width="101" height="100" viewBox="0 0 101 100" fill="none" xmlns="http://www.w3.org/2000/svg">
<g clip-path="url(#clip0_169_460)">
<path d="M4.75 35.3687V50H2.5V35.3656C2.5 28.425 6.69375 22.3563 12.9594 19.8375C10.6313 17.9656 9.21875 15.1062 9.21875 12.0312C9.21875 6.5 13.7188 2 19.25 2C24.7812 2 29.2812 6.5 29.2812 12.0312C29.2812 15.1062 27.8687 17.9625 25.5406 19.8406C31.8062 22.3594 36 28.4281 36 35.3687V50H33.75V35.3656C33.75 28.6156 29.1656 22.8156 22.6063 21.2594C22.1375 21.15 21.7906 20.75 21.7469 20.2719C21.7031 19.7906 21.9688 19.3344 22.4094 19.1375C25.2188 17.8875 27.0344 15.0969 27.0344 12.0281C27.0344 7.7375 23.5438 4.24688 19.2531 4.24688C14.9625 4.24688 11.4688 7.74062 11.4688 12.0312C11.4688 15.1 13.2844 17.8906 16.0938 19.1406C16.5344 19.3375 16.8 19.7938 16.7563 20.2719C16.7125 20.7531 16.3656 21.1531 15.8938 21.2625C9.33438 22.8188 4.75 28.6187 4.75 35.3687ZM88.0438 66.7156C90.3719 64.8375 91.7844 61.9781 91.7844 58.9063C91.7844 53.3719 87.2844 48.875 81.75 48.875C76.2156 48.875 71.7156 53.3719 71.7156 58.9063C71.7156 61.9781 73.1281 64.8375 75.4563 66.7156C69.1906 69.2344 64.9969 75.3031 64.9969 82.2438V96.875H67.25V82.2406C67.25 75.4906 71.8313 69.6906 78.3906 68.1344C78.8594 68.0219 79.2063 67.625 79.25 67.1438C79.2969 66.6656 79.0281 66.2063 78.5875 66.0125C75.7781 64.7656 73.9656 61.975 73.9656 58.9063C73.9656 54.6156 77.4563 51.125 81.7469 51.125C86.0375 51.125 89.5281 54.6156 89.5281 58.9063C89.5281 61.975 87.7156 64.7656 84.9062 66.0125C84.4656 66.2063 84.1969 66.6656 84.2438 67.1438C84.2906 67.625 84.6344 68.0219 85.1031 68.1344C91.6656 69.6906 96.2438 75.4906 96.2438 82.2406V96.875H98.4969V82.2406C98.5 75.3031 94.3094 69.2313 88.0438 66.7156ZM20.375 71.875V55.8406L27.8312 63.2969L29.4219 61.7031L19.25 51.5344L9.08125 61.7031L10.6719 63.2969L18.1281 55.8406V71.875C18.1281 79.3875 24.2406 85.5 31.7531 85.5H59.8781V83.25H31.7531C25.4781 83.25 20.375 78.1469 20.375 71.875ZM80.625 25V41.0312L73.1719 33.5781L71.5781 35.1687L81.75 45.3406L91.9219 35.1687L90.3281 33.5781L82.875 41.0312V25C82.875 17.4875 76.7625 11.375 69.25 11.375H34.875V13.625H69.25C75.5219 13.625 80.625 18.7281 80.625 25Z" fill="#313131"/>
</g>
<defs>
<clipPath id="clip0_169_460">
<rect width="100" height="100" fill="white" transform="translate(0.5)"/>
</clipPath>
</defs>
</svg>
