<?xml version="1.0" standalone="no"?>
<!DOCTYPE svg PUBLIC "-//W3C//DTD SVG 20010904//EN"
 "http://www.w3.org/TR/2001/REC-SVG-20010904/DTD/svg10.dtd">
<svg version="1.0" xmlns="http://www.w3.org/2000/svg"
 width="463.000000pt" height="463.000000pt" viewBox="0 0 463.000000 463.000000"
 preserveAspectRatio="xMidYMid meet">
<rect width="100%" height="100%" fill="#ffffff"/>
<g transform="translate(0.000000,463.000000) scale(0.100000,-0.100000)" stroke="none">
<path fill="#F79030" d="M1352 2315 l3 -1067 450 -264 c377 -222 453 -264 470 -255 11 5 216
124 455 264 l435 254 3 211 c2 156 -1 212 -9 212 -7 0 -209 -119 -450 -265
-241 -146 -444 -265 -451 -265 -7 0 -135 74 -283 163 l-270 164 4 634 c1 349
4 635 5 637 2 1 122 -68 267 -153 145 -85 271 -154 280 -153 9 2 217 120 463
263 l446 260 0 208 c0 149 -3 207 -11 207 -7 0 -210 -115 -452 -257 -242 -141
-445 -256 -451 -256 -9 0 -734 419 -874 505 l-32 20 2 -1067z"/>
<path fill="#24448D" d="M610 1890 c0 -1007 1 -1060 18 -1051 9 6 87 52 172 104 l155 93 3
642 c1 353 4 642 7 642 3 0 45 -22 93 -50 48 -27 91 -50 95 -50 4 0 7 91 7
203 l0 204 -267 158 c-148 87 -271 160 -275 162 -5 2 -8 -473 -8 -1057z"/>
<path fill="#24448D" d="M3082 2474 l-824 -475 -176 103 c-97 57 -180 105 -184 106 -5 2 -7
-92 -6 -208 l3 -212 175 -104 c96 -57 180 -103 185 -104 6 0 296 164 644 365
348 201 638 365 642 365 5 0 9 -282 9 -638 l0 -637 107 -60 c59 -33 142 -79
185 -103 l78 -43 0 1060 c0 584 -3 1061 -7 1060 -5 0 -379 -214 -831 -475z"/>
</g>
</svg>
