<svg width="101" height="100" viewBox="0 0 101 100" fill="none" xmlns="http://www.w3.org/2000/svg">
<g clip-path="url(#clip0_169_233)">
<path d="M98.3904 52.0623L88.0661 33.7426C86.7881 31.4753 83.7498 29.6995 81.1487 29.6995H74.5146C71.7129 29.6995 69.4329 31.9787 69.4329 34.7807V52.0664C69.4329 54.8684 71.7129 57.1483 74.5146 57.1483H88.585C89.1715 57.1483 89.6467 56.6731 89.6467 56.0869C89.6467 55.5002 89.1715 55.0255 88.585 55.0255H74.5146C72.8833 55.0255 71.556 53.698 71.556 52.0664V34.7807C71.556 33.1499 72.8833 31.8223 74.5146 31.8223H81.1487C82.99 31.8223 85.312 33.179 86.2167 34.7848L96.5408 53.104C97.5364 54.8716 98.3771 58.0781 98.3771 60.1062V73.7748C98.3771 75.4063 97.0498 76.7334 95.4182 76.7334H91.0439C90.4577 76.7334 89.9825 77.2086 89.9825 77.7948C89.9825 78.3815 90.4577 78.8562 91.0439 78.8562H95.4182C98.2202 78.8562 100.5 76.5768 100.5 73.7748V60.1062C100.5 57.6957 99.5732 54.1623 98.3904 52.0623Z" fill="#313131"/>
<path d="M78.8435 69.2812C77.2671 69.2812 75.7278 69.7147 74.3915 70.5372C73.892 70.8441 73.7363 71.4975 74.0433 71.997C74.3512 72.496 75.0054 72.6519 75.5034 72.3453C76.5048 71.7297 77.6597 71.4043 78.8435 71.4043C82.3677 71.4043 85.235 74.2714 85.235 77.7946C85.235 81.3185 82.3674 84.1848 78.8435 84.1848C75.3196 84.1848 72.453 81.3182 72.453 77.7946C72.453 77.2084 71.9778 76.7332 71.3913 76.7332H66.7679C66.1815 76.7332 65.7065 77.2084 65.7065 77.7946C65.7065 78.3812 66.1815 78.8564 66.7679 78.8564H70.4035C70.9285 83.0503 74.5097 86.3084 78.8437 86.3084C83.5386 86.3084 87.3583 82.4894 87.3583 77.7946C87.358 73.1007 83.5383 69.2812 78.8435 69.2812Z" fill="#313131"/>
<path d="M60.0357 25.7308C56.784 25.7308 56.6903 22.1379 56.6903 21.728V18.8383C56.6903 16.0002 54.3812 13.6918 51.5438 13.6918H5.64662C2.80917 13.6916 0.500122 16.0002 0.500122 18.8383V41.0595C0.500122 41.646 0.974851 42.1212 1.56152 42.1212H23.2206C23.807 42.1212 24.2822 41.646 24.2822 41.0595V33.1421L41.2209 45.8466C41.3304 45.9282 41.3958 46.0207 41.3967 46.0938C41.3967 46.166 41.3331 46.2594 41.2255 46.3427L24.2822 59.4732V51.0985C24.2822 50.5123 23.807 50.0371 23.2206 50.0371H1.56152C0.974608 50.0371 0.500122 50.5123 0.500122 51.0985V73.8085C0.500122 76.6946 2.14625 78.9548 4.2472 78.9548H23.3585C23.8825 83.0943 27.4193 86.3083 31.6989 86.3083C36.3389 86.3083 40.1136 82.5331 40.1136 77.8934C40.1136 73.2537 36.3384 69.4794 31.6989 69.4794C30.1409 69.4794 28.6196 69.9082 27.2986 70.72C26.7994 71.0269 26.6435 71.6809 26.9504 72.1799C27.2573 72.6799 27.9115 72.8363 28.4105 72.5286C29.3964 71.923 30.5336 71.6024 31.6987 71.6024C35.1684 71.6024 37.9903 74.4243 37.9903 77.8936C37.9903 81.3629 35.1684 84.1853 31.6987 84.1853C28.2291 84.1853 25.407 81.3624 25.407 77.8936C25.407 77.3074 24.9318 76.8322 24.3454 76.8322H4.2472C3.48084 76.8322 2.62317 75.5389 2.62317 73.8088V52.1594H22.1592V59.8374C22.1592 60.7301 22.5283 61.4224 23.1723 61.7383C23.402 61.8512 23.6477 61.9061 23.9012 61.9061C24.359 61.9056 24.8407 61.7254 25.2943 61.374L42.5264 48.0202C43.1631 47.5263 43.5254 46.8177 43.52 46.0759C43.5132 45.334 43.14 44.6315 42.4948 44.1478L25.2985 31.25C24.5877 30.7172 23.8114 30.5953 23.1686 30.9161C22.5271 31.2371 22.1589 31.9314 22.1589 32.8204V39.9974H2.62317V18.8383C2.62317 17.1708 3.97936 15.8146 5.64686 15.8146H51.5438C53.2113 15.8146 54.5675 17.1708 54.5675 18.8383V21.7282C54.5675 24.6783 56.2787 27.8541 60.036 27.8541C60.9238 27.8541 61.9128 29.0956 61.9128 30.8777V73.8085C61.9128 75.476 60.5566 76.832 58.8893 76.832H45.3653C44.7791 76.832 44.3039 77.3072 44.3039 77.8934C44.3039 78.4801 44.7791 78.9548 45.3653 78.9548H58.8893C61.7275 78.9548 64.0358 76.646 64.0358 73.8085V30.8775C64.0354 28.0393 62.2411 25.7308 60.0357 25.7308Z" fill="#313131"/>
</g>
<defs>
<clipPath id="clip0_169_233">
<rect width="100" height="100" fill="white" transform="translate(0.5)"/>
</clipPath>
</defs>
</svg>
