<svg width="101" height="100" viewBox="0 0 101 100" fill="none" xmlns="http://www.w3.org/2000/svg">
<g clip-path="url(#clip0_169_205)">
<path d="M13.2674 40.3598C13.5379 40.3598 13.8061 40.2502 14.0018 40.035L21.1592 32.1325C21.8313 31.3907 23.2989 30.7399 24.3002 30.7399H33.8646C34.4116 30.7399 34.8549 30.2966 34.8549 29.7495C34.8549 29.2025 34.4116 28.7594 33.8646 28.7594H24.3006C22.7544 28.7594 20.73 29.6569 19.692 30.8028L12.5339 38.7044C12.1672 39.1101 12.1978 39.7357 12.6028 40.1034C12.7926 40.2755 13.03 40.3598 13.2674 40.3598Z" fill="#313131"/>
<path d="M90.4164 47.0803L79.5565 31.1107C78.6606 29.7926 76.7102 28.7596 75.1158 28.7596H65.9475C65.4005 28.7596 64.9574 29.2029 64.9574 29.7498C64.9574 30.2968 65.4005 30.7401 65.9475 30.7401H75.1162C76.0554 30.7401 77.3909 31.4471 77.919 32.2238L88.7789 48.1945C89.3816 49.0807 89.9108 50.7995 89.9108 51.8721V96.6908C89.9108 97.4229 89.315 98.0189 88.5829 98.0189H80.7878V83.0489H84.6163C85.2691 83.0489 85.7831 82.7626 86.028 82.264C86.2726 81.7655 86.1836 81.1835 85.7845 80.6673L78.4202 71.1654C78.0725 70.7171 77.5699 70.4616 77.0382 70.4616H77.0247C76.4885 70.4661 75.984 70.7309 75.6415 71.188L68.5296 80.6709C68.1402 81.1903 68.0592 81.7725 68.3072 82.2686C68.5552 82.7647 69.0701 83.0494 69.7191 83.0494H73.2721V98.0193H58.8055V83.0494H62.634C63.2863 83.0494 63.8008 82.7631 64.0452 82.2645C64.2898 81.7659 64.201 81.184 63.8017 80.6677L56.4375 71.1658C56.0897 70.7176 55.5871 70.462 55.0555 70.462H55.0419C54.5057 70.4666 54.0012 70.7314 53.6587 71.1885L46.5468 80.6709C46.1579 81.1908 46.0764 81.7729 46.3249 82.269C46.5724 82.7649 47.0869 83.0499 47.7363 83.0499H51.2893V98.0198H13.9472C12.3711 98.0198 11.0894 96.7376 11.0894 95.1622V50.913C11.0894 49.3369 12.3711 48.0552 13.9472 48.0552H77.8304C78.3774 48.0552 78.8205 47.6119 78.8205 47.0649C78.8205 46.5178 78.3774 46.0745 77.8304 46.0745H13.9472C11.2795 46.0745 9.10895 48.245 9.10895 50.9128V95.1617C9.10895 97.829 11.279 100 13.9472 100H52.2794C52.8265 100 53.2696 99.5563 53.2696 99.0099V82.0593C53.2696 81.512 52.8265 81.0687 52.2794 81.0687L48.7237 81.0682L55.0595 72.6206L61.6056 81.0687H57.8147C57.2677 81.0687 56.8246 81.512 56.8246 82.0593V99.0099C56.8246 99.5563 57.2677 100 57.8147 100H74.2362C74.783 100 75.2263 99.5563 75.2263 99.0099C75.2263 98.977 75.2519 82.0593 75.2519 82.0593C75.2519 81.512 74.8088 81.0687 74.2618 81.0687L70.7061 81.0682L77.0421 72.6206L83.5881 81.0687H79.7973C79.2502 81.0687 78.8069 81.512 78.8069 82.0593C78.8069 82.0593 78.8298 98.9741 78.8298 99.0099C78.8298 99.5563 79.2729 100 79.8199 100H88.5827C90.4066 100 91.891 98.5152 91.891 96.6912V51.8725C91.8915 50.4015 91.2436 48.2967 90.4164 47.0803Z" fill="#313131"/>
<path d="M49.1519 33.7746C49.5302 34.2623 50.0763 34.5414 50.6514 34.5414H50.6657C51.2461 34.5364 51.7936 34.2483 52.1671 33.7497L60.6757 22.4046C61.0961 21.8437 61.1863 21.2214 60.9237 20.6961C60.6612 20.1708 60.1085 19.8696 59.4088 19.8696H54.9635V0.990352C54.9635 0.443303 54.5202 0 53.9731 0C53.4263 0 52.983 0.443303 52.983 0.990352V20.8597C52.983 21.4067 53.4263 21.85 53.9731 21.85H58.6162L50.6476 32.4707L42.416 21.85H47.3501C47.8972 21.85 48.3402 21.4067 48.3402 20.8597V6.99657C48.3402 6.44952 47.8969 6.00645 47.3501 6.00645C46.8037 6.00645 46.3598 6.44975 46.3598 6.99657V19.8696H41.5845C40.8802 19.8696 40.3284 20.1722 40.0702 20.6998C39.8115 21.2273 39.91 21.8489 40.3411 22.4057L49.1519 33.7746Z" fill="#313131"/>
</g>
<defs>
<clipPath id="clip0_169_205">
<rect width="100" height="100" fill="white" transform="translate(0.5)"/>
</clipPath>
</defs>
</svg>
