<svg width="101" height="100" viewBox="0 0 101 100" fill="none" xmlns="http://www.w3.org/2000/svg">
<g clip-path="url(#clip0_169_446)">
<path d="M85.8393 38.4822V38.8367L86.1933 38.8566C93.9429 39.2919 100.125 45.7366 100.125 53.5714V55.3572C100.125 63.5429 93.5072 70.1607 85.3214 70.1607H79.0714C77.3142 70.1607 75.875 68.7215 75.875 66.9643V41.9643C75.875 40.2071 77.3142 38.7679 79.0714 38.7679H82.6429H83.0179V38.3929C83.0179 20.4179 68.475 5.87502 50.5 5.87502C32.525 5.87502 17.9821 20.4179 17.9821 38.3929V38.7679H18.3571H21.9286C23.6857 38.7679 25.125 40.2071 25.125 41.9643V66.9643C25.125 68.7215 23.6857 70.1607 21.9286 70.1607H20.6786H19.9949L20.3623 70.7373L25.5381 78.8578C25.5386 78.8585 25.539 78.8593 25.5395 78.8601C29.3576 85.04 35.995 88.7679 43.2679 88.7679H44.5179H44.8065L44.8804 88.4888C45.6431 85.6075 48.2697 83.4107 51.3929 83.4107C55.1143 83.4107 58.1607 86.4571 58.1607 90.1786C58.1607 93.9 55.1143 96.9464 51.3929 96.9464C48.2697 96.9464 45.6431 94.7497 44.8804 91.8683L44.8065 91.5893H44.5179H43.2679C35.0042 91.5893 27.5352 87.4594 23.1394 80.4263L23.139 80.4255L16.7997 70.3362L16.6894 70.1607H16.4821H15.6786C7.49282 70.1607 0.875 63.5429 0.875 55.3572V53.5714C0.875 45.7366 7.05705 39.2919 14.8067 38.8566L15.1607 38.8367V38.4822V38.4816V38.4811V38.4806V38.4801V38.4796V38.4791V38.4785V38.478V38.4775V38.477V38.4765V38.476V38.4755V38.475V38.4745V38.474V38.4736V38.4731V38.4726V38.4721V38.4716V38.4711V38.4707V38.4702V38.4697V38.4692V38.4688V38.4683V38.4678V38.4674V38.4669V38.4664V38.466V38.4655V38.4651V38.4646V38.4642V38.4637V38.4633V38.4628V38.4624V38.4619V38.4615V38.4611V38.4606V38.4602V38.4598V38.4593V38.4589V38.4585V38.458V38.4576V38.4572V38.4568V38.4564V38.4559V38.4555V38.4551V38.4547V38.4543V38.4539V38.4535V38.4531V38.4527V38.4523V38.4519V38.4515V38.4511V38.4507V38.4503V38.4499V38.4495V38.4492V38.4488V38.4484V38.448V38.4476V38.4473V38.4469V38.4465V38.4461V38.4458V38.4454V38.445V38.4447V38.4443V38.4439V38.4436V38.4432V38.4429V38.4425V38.4422V38.4418V38.4415V38.4411V38.4408V38.4404V38.4401V38.4397V38.4394V38.4391V38.4387V38.4384V38.438V38.4377V38.4374V38.4371V38.4367V38.4364V38.4361V38.4358V38.4354V38.4351V38.4348V38.4345V38.4342V38.4339V38.4336V38.4333V38.4329V38.4326V38.4323V38.432V38.4317V38.4314V38.4311V38.4308V38.4305V38.4302V38.43V38.4297V38.4294V38.4291V38.4288V38.4285V38.4282V38.428V38.4277V38.4274V38.4271V38.4268V38.4266V38.4263V38.426V38.4258V38.4255V38.4252V38.425V38.4247V38.4244V38.4242V38.4239V38.4236V38.4234V38.4231V38.4229V38.4226V38.4224V38.4221V38.4219V38.4216V38.4214V38.4212V38.4209V38.4207V38.4204V38.4202V38.42V38.4197V38.4195V38.4193V38.419V38.4188V38.4186V38.4183V38.4181V38.4179V38.4177V38.4174V38.4172V38.417V38.4168V38.4166V38.4163V38.4161V38.4159V38.4157V38.4155V38.4153V38.4151V38.4149V38.4147V38.4145V38.4143V38.4141V38.4139V38.4137V38.4135V38.4133V38.4131V38.4129V38.4127V38.4125V38.4123V38.4121V38.4119V38.4117V38.4116V38.4114V38.4112V38.411V38.4108V38.4107V38.4105V38.4103V38.4101V38.41V38.4098V38.4096V38.4094V38.4093V38.4091V38.4089V38.4088V38.4086V38.4084V38.4083V38.4081V38.4079V38.4078V38.4076V38.4075V38.4073V38.4072V38.407V38.4069V38.4067V38.4066V38.4064V38.4063V38.4061V38.406V38.4058V38.4057V38.4055V38.4054V38.4053V38.4051V38.405V38.4048V38.4047V38.4046V38.4044V38.4043V38.4042V38.404V38.4039V38.4038V38.4036V38.4035V38.4034V38.4033V38.4031V38.403V38.4029V38.4028V38.4027V38.4025V38.4024V38.4023V38.4022V38.4021V38.402V38.4018V38.4017V38.4016V38.4015V38.4014V38.4013V38.4012V38.4011V38.401V38.4009V38.4008V38.4007V38.4006V38.4004V38.4003V38.4002V38.4002V38.4001V38.4V38.3999V38.3998V38.3997V38.3996V38.3995V38.3994V38.3993V38.3992V38.3991V38.399V38.3989V38.3989V38.3988V38.3987V38.3986V38.3985V38.3984V38.3984V38.3983V38.3982V38.3981V38.398V38.398V38.3979V38.3978V38.3977V38.3977V38.3976V38.3975V38.3974V38.3974V38.3973V38.3972V38.3972V38.3971V38.397V38.3969V38.3969V38.3968V38.3968V38.3967V38.3966V38.3966V38.3965V38.3964V38.3964V38.3963V38.3963V38.3962V38.3961V38.3961V38.396V38.396V38.3959V38.3959V38.3958V38.3958V38.3957V38.3956V38.3956V38.3955V38.3955V38.3954V38.3954V38.3953V38.3953V38.3953V38.3952V38.3952V38.3951V38.3951V38.395V38.395V38.3949V38.3949V38.3949V38.3948V38.3948V38.3947V38.3947V38.3947V38.3946V38.3946V38.3945V38.3945V38.3945V38.3944V38.3944V38.3944V38.3943V38.3943V38.3943V38.3942V38.3942V38.3942V38.3941V38.3941V38.3941V38.394V38.394V38.3939V38.3939V38.3938V38.3938V38.3937V38.3937V38.3936V38.3936V38.3936V38.3935V38.3935V38.3934V38.3934V38.3934V38.3933V38.3933V38.3933V38.3932V38.3932V38.3932V38.3931V38.3931V38.3931V38.393V38.393V38.393V38.3929V38.3929V38.3929C15.1607 18.8678 30.975 3.05359 50.5 3.05359C70.0244 3.05359 85.8393 18.8672 85.8393 38.4822ZM22.3036 41.9643V41.5893H21.9286H15.6786C9.04289 41.5893 3.69643 46.9358 3.69643 53.5714V55.3572C3.69643 61.9928 9.04289 67.3393 15.6786 67.3393H21.9286H22.3036V66.9643V41.9643ZM78.6964 66.9643V67.3393H79.0714H85.3214C91.9571 67.3393 97.3036 61.9928 97.3036 55.3572V53.5714C97.3036 46.9358 91.9571 41.5893 85.3214 41.5893H79.0714H78.6964V41.9643V66.9643ZM55.3393 90.1786C55.3393 88.0072 53.5643 86.2322 51.3929 86.2322C49.2215 86.2322 47.4464 88.0072 47.4464 90.1786C47.4464 92.35 49.2215 94.125 51.3929 94.125C53.5643 94.125 55.3393 92.35 55.3393 90.1786Z" fill="#313131" stroke="white" stroke-width="0.75"/>
<path d="M63.6848 15.5799L63.7043 15.5928L63.7251 15.6033C63.8775 15.6794 64.1216 15.8413 64.3991 16.0263L64.4183 16.0391C64.6657 16.204 64.9407 16.3874 65.1395 16.4889C65.8571 16.9269 66.0495 17.7719 65.709 18.3874C65.4219 18.8884 65.0143 19.0893 64.5179 19.0893C64.3156 19.0893 64.0326 19.0175 63.833 18.8844L63.7912 18.8565L63.7436 18.8407C63.5328 18.7704 63.3087 18.6241 63.0294 18.438L63.0103 18.4252C62.7629 18.2603 62.4878 18.0768 62.289 17.9753C61.9317 17.7574 61.7325 17.4632 61.6573 17.1457C61.5801 16.8199 61.6274 16.4409 61.8176 16.0606C62.1582 15.3792 63.0597 15.1631 63.6848 15.5799Z" fill="#313131" stroke="white" stroke-width="0.75"/>
<path d="M31.1394 20.872L31.1415 20.8694C35.9813 15.2378 43.0204 11.9822 50.5 11.9822C52.3473 11.9822 54.1889 12.1577 56.027 12.5943C56.3796 12.7029 56.7068 12.9561 56.9165 13.2752C57.1275 13.5962 57.2 13.9509 57.1051 14.2673C56.8879 14.9911 56.171 15.484 55.3952 15.3466C53.7646 14.9848 52.1326 14.8036 50.5 14.8036C43.8716 14.8036 37.6086 17.7093 33.2532 22.6999L33.2479 22.7059L33.2429 22.7122C32.9654 23.0591 32.6325 23.1965 32.1964 23.1965C31.8677 23.1965 31.5917 23.0713 31.2725 22.8338C30.72 22.34 30.6567 21.4236 31.1394 20.872Z" fill="#313131" stroke="white" stroke-width="0.75"/>
</g>
<defs>
<clipPath id="clip0_169_446">
<rect width="100" height="100" fill="white" transform="translate(0.5)"/>
</clipPath>
</defs>
</svg>
